solid OpenSCAD_Model
  facet normal -0 0 -1
    outer loop
      vertex -12 0 0
      vertex -11.7378 2.49494 0
      vertex -11.7378 -2.49494 0
    endloop
  endfacet
  facet normal 0 -0 -1
    outer loop
      vertex -11.7378 -2.49494 0
      vertex -11.7378 2.49494 0
      vertex -10.9625 4.88084 0
    endloop
  endfacet
  facet normal 0 0 -1
    outer loop
      vertex -11.7378 -2.49494 0
      vertex -10.9625 4.88084 0
      vertex -9.7082 7.05342 0
    endloop
  endfacet
  facet normal 0 0 -1
    outer loop
      vertex -11.7378 -2.49494 0
      vertex -9.7082 7.05342 0
      vertex -8.02957 8.91774 0
    endloop
  endfacet
  facet normal 0 0 -1
    outer loop
      vertex -11.7378 -2.49494 0
      vertex -8.02957 8.91774 0
      vertex -6 10.3923 0
    endloop
  endfacet
  facet normal 0 0 -1
    outer loop
      vertex -7.71171 4.63998 0
      vertex -6 10.3923 0
      vertex -3.7082 11.4127 0
    endloop
  endfacet
  facet normal 0 0 -1
    outer loop
      vertex -5.05068 7.4492 0
      vertex -3.7082 11.4127 0
      vertex -1.25434 11.9343 0
    endloop
  endfacet
  facet normal 0 0 -1
    outer loop
      vertex -3.33124 8.36079 0
      vertex -1.25434 11.9343 0
      vertex 1.25434 11.9343 0
    endloop
  endfacet
  facet normal 0 0 -1
    outer loop
      vertex 0.48725 8.9868 0
      vertex 1.25434 11.9343 0
      vertex 3.7082 11.4127 0
    endloop
  endfacet
  facet normal 0 0 -1
    outer loop
      vertex 2.40775 8.67195 0
      vertex 3.7082 11.4127 0
      vertex 6 10.3923 0
    endloop
  endfacet
  facet normal 0 0 -1
    outer loop
      vertex 4.21568 7.95161 0
      vertex 6 10.3923 0
      vertex 8.02957 8.91774 0
    endloop
  endfacet
  facet normal 0 0 -1
    outer loop
      vertex 5.82648 6.85946 0
      vertex 8.02957 8.91774 0
      vertex 9.7082 7.05342 0
    endloop
  endfacet
  facet normal -0 0 -1
    outer loop
      vertex 7.16484 5.44657 0
      vertex 9.7082 7.05342 0
      vertex 10.9625 4.88084 0
    endloop
  endfacet
  facet normal 0 0 -1
    outer loop
      vertex 8.78958 1.93473 0
      vertex 10.9625 4.88084 0
      vertex 11.7378 2.49494 0
    endloop
  endfacet
  facet normal -0 0 -1
    outer loop
      vertex 9 0 0
      vertex 11.7378 2.49494 0
      vertex 12 0 0
    endloop
  endfacet
  facet normal -0 0 -1
    outer loop
      vertex 8.78958 -1.93473 0
      vertex 12 0 0
      vertex 11.7378 -2.49494 0
    endloop
  endfacet
  facet normal -0 0 -1
    outer loop
      vertex 8.16818 -3.779 0
      vertex 11.7378 -2.49494 0
      vertex 10.9625 -4.88084 0
    endloop
  endfacet
  facet normal -0 0 -1
    outer loop
      vertex 7.16484 -5.44657 0
      vertex 10.9625 -4.88084 0
      vertex 9.7082 -7.05342 0
    endloop
  endfacet
  facet normal 0 0 -1
    outer loop
      vertex 5.82648 -6.85946 0
      vertex 9.7082 -7.05342 0
      vertex 8.02957 -8.91774 0
    endloop
  endfacet
  facet normal 0 0 -1
    outer loop
      vertex 2.40775 -8.67195 0
      vertex 8.02957 -8.91774 0
      vertex 6 -10.3923 0
    endloop
  endfacet
  facet normal 0 0 -1
    outer loop
      vertex 0.48725 -8.9868 0
      vertex 6 -10.3923 0
      vertex 3.7082 -11.4127 0
    endloop
  endfacet
  facet normal 0 0 -1
    outer loop
      vertex -3.33124 -8.36079 0
      vertex 3.7082 -11.4127 0
      vertex 1.25434 -11.9343 0
    endloop
  endfacet
  facet normal 0 0 -1
    outer loop
      vertex -5.05068 -7.4492 0
      vertex 1.25434 -11.9343 0
      vertex -1.25434 -11.9343 0
    endloop
  endfacet
  facet normal 0 0 -1
    outer loop
      vertex -11.7378 -2.49494 0
      vertex -1.25434 -11.9343 0
      vertex -3.7082 -11.4127 0
    endloop
  endfacet
  facet normal 0 0 -1
    outer loop
      vertex -11.7378 -2.49494 0
      vertex -3.7082 -11.4127 0
      vertex -6 -10.3923 0
    endloop
  endfacet
  facet normal 0 0 -1
    outer loop
      vertex -11.7378 -2.49494 0
      vertex -6 -10.3923 0
      vertex -8.02957 -8.91774 0
    endloop
  endfacet
  facet normal 0 0 -1
    outer loop
      vertex -11.7378 -2.49494 0
      vertex -8.02957 -8.91774 0
      vertex -9.7082 -7.05342 0
    endloop
  endfacet
  facet normal 0 0 -1
    outer loop
      vertex -11.7378 -2.49494 0
      vertex -9.7082 -7.05342 0
      vertex -10.9625 -4.88084 0
    endloop
  endfacet
  facet normal 0 0 -1
    outer loop
      vertex -8.94724 -0.973071 0
      vertex -11.7378 -2.49494 0
      vertex -8.94724 0.973071 0
    endloop
  endfacet
  facet normal 0 0 -1
    outer loop
      vertex -8.52888 -2.87371 0
      vertex -11.7378 -2.49494 0
      vertex -8.94724 -0.973071 0
    endloop
  endfacet
  facet normal 0 0 -1
    outer loop
      vertex -7.71171 -4.63998 0
      vertex -11.7378 -2.49494 0
      vertex -8.52888 -2.87371 0
    endloop
  endfacet
  facet normal 0 0 -1
    outer loop
      vertex -6.53396 -6.18929 0
      vertex -11.7378 -2.49494 0
      vertex -7.71171 -4.63998 0
    endloop
  endfacet
  facet normal 0 0 -1
    outer loop
      vertex -5.05068 -7.4492 0
      vertex -11.7378 -2.49494 0
      vertex -6.53396 -6.18929 0
    endloop
  endfacet
  facet normal 0 0 -1
    outer loop
      vertex -3.33124 -8.36079 0
      vertex 1.25434 -11.9343 0
      vertex -5.05068 -7.4492 0
    endloop
  endfacet
  facet normal 0 0 -1
    outer loop
      vertex -11.7378 -2.49494 0
      vertex -5.05068 -7.4492 0
      vertex -1.25434 -11.9343 0
    endloop
  endfacet
  facet normal 0 0 -1
    outer loop
      vertex -1.45604 -8.88144 0
      vertex 3.7082 -11.4127 0
      vertex -3.33124 -8.36079 0
    endloop
  endfacet
  facet normal 0 0 -1
    outer loop
      vertex 0.48725 -8.9868 0
      vertex 3.7082 -11.4127 0
      vertex -1.45604 -8.88144 0
    endloop
  endfacet
  facet normal 0 0 -1
    outer loop
      vertex 2.40775 -8.67195 0
      vertex 6 -10.3923 0
      vertex 0.48725 -8.9868 0
    endloop
  endfacet
  facet normal 0 0 -1
    outer loop
      vertex 4.21568 -7.95161 0
      vertex 8.02957 -8.91774 0
      vertex 2.40775 -8.67195 0
    endloop
  endfacet
  facet normal 0 0 -1
    outer loop
      vertex 8.16818 -3.779 0
      vertex 10.9625 -4.88084 0
      vertex 7.16484 -5.44657 0
    endloop
  endfacet
  facet normal 0 0 -1
    outer loop
      vertex 7.16484 -5.44657 0
      vertex 9.7082 -7.05342 0
      vertex 5.82648 -6.85946 0
    endloop
  endfacet
  facet normal 0 0 -1
    outer loop
      vertex 5.82648 -6.85946 0
      vertex 8.02957 -8.91774 0
      vertex 4.21568 -7.95161 0
    endloop
  endfacet
  facet normal -0 0 -1
    outer loop
      vertex 8.16818 3.779 0
      vertex 10.9625 4.88084 0
      vertex 8.78958 1.93473 0
    endloop
  endfacet
  facet normal -0 0 -1
    outer loop
      vertex 4.21568 7.95161 0
      vertex 8.02957 8.91774 0
      vertex 5.82648 6.85946 0
    endloop
  endfacet
  facet normal -0 0 -1
    outer loop
      vertex 5.82648 6.85946 0
      vertex 9.7082 7.05342 0
      vertex 7.16484 5.44657 0
    endloop
  endfacet
  facet normal 0 0 -1
    outer loop
      vertex -1.45604 8.88144 0
      vertex 1.25434 11.9343 0
      vertex 0.48725 8.9868 0
    endloop
  endfacet
  facet normal -0 0 -1
    outer loop
      vertex 8.78958 1.93473 0
      vertex 11.7378 2.49494 0
      vertex 9 0 0
    endloop
  endfacet
  facet normal 0 0 -1
    outer loop
      vertex 7.16484 5.44657 0
      vertex 10.9625 4.88084 0
      vertex 8.16818 3.779 0
    endloop
  endfacet
  facet normal 0 0 -1
    outer loop
      vertex -5.05068 7.4492 0
      vertex -1.25434 11.9343 0
      vertex -3.33124 8.36079 0
    endloop
  endfacet
  facet normal 0 0 -1
    outer loop
      vertex -6.53396 6.18929 0
      vertex -3.7082 11.4127 0
      vertex -5.05068 7.4492 0
    endloop
  endfacet
  facet normal 0 0 -1
    outer loop
      vertex -11.7378 -2.49494 0
      vertex -6 10.3923 0
      vertex -7.71171 4.63998 0
    endloop
  endfacet
  facet normal 0 0 -1
    outer loop
      vertex -3.33124 8.36079 0
      vertex 1.25434 11.9343 0
      vertex -1.45604 8.88144 0
    endloop
  endfacet
  facet normal 0 -0 -1
    outer loop
      vertex -8.94724 0.973071 0
      vertex -11.7378 -2.49494 0
      vertex -8.52888 2.87371 0
    endloop
  endfacet
  facet normal 0 0 -1
    outer loop
      vertex -7.71171 4.63998 0
      vertex -3.7082 11.4127 0
      vertex -6.53396 6.18929 0
    endloop
  endfacet
  facet normal 0 -0 -1
    outer loop
      vertex -8.52888 2.87371 0
      vertex -11.7378 -2.49494 0
      vertex -7.71171 4.63998 0
    endloop
  endfacet
  facet normal -0 0 -1
    outer loop
      vertex 0.48725 8.9868 0
      vertex 3.7082 11.4127 0
      vertex 2.40775 8.67195 0
    endloop
  endfacet
  facet normal -0 0 -1
    outer loop
      vertex 2.40775 8.67195 0
      vertex 6 10.3923 0
      vertex 4.21568 7.95161 0
    endloop
  endfacet
  facet normal 0 0 -1
    outer loop
      vertex 9 0 0
      vertex 12 0 0
      vertex 8.78958 -1.93473 0
    endloop
  endfacet
  facet normal 0 0 -1
    outer loop
      vertex 8.78958 -1.93473 0
      vertex 11.7378 -2.49494 0
      vertex 8.16818 -3.779 0
    endloop
  endfacet
  facet normal -0.994522 0.104529 0
    outer loop
      vertex -12 0 0
      vertex -12 0 15
      vertex -11.7378 2.49494 0
    endloop
  endfacet
  facet normal -0.994522 0.104529 0
    outer loop
      vertex -11.7378 2.49494 0
      vertex -12 0 15
      vertex -11.7378 2.49494 15
    endloop
  endfacet
  facet normal -0.994522 -0.104529 -0
    outer loop
      vertex -12 0 0
      vertex -11.7378 -2.49494 0
      vertex -12 0 15
    endloop
  endfacet
  facet normal -0.994522 -0.104529 0
    outer loop
      vertex -12 0 15
      vertex -11.7378 -2.49494 0
      vertex -11.7378 -2.49494 15
    endloop
  endfacet
  facet normal -0.951057 -0.309017 -0
    outer loop
      vertex -11.7378 -2.49494 0
      vertex -10.9625 -4.88084 0
      vertex -11.7378 -2.49494 15
    endloop
  endfacet
  facet normal -0.951057 -0.309017 0
    outer loop
      vertex -11.7378 -2.49494 15
      vertex -10.9625 -4.88084 0
      vertex -10.9625 -4.88084 15
    endloop
  endfacet
  facet normal -0.866025 -0.5 -0
    outer loop
      vertex -10.9625 -4.88084 0
      vertex -9.7082 -7.05342 0
      vertex -10.9625 -4.88084 15
    endloop
  endfacet
  facet normal -0.866025 -0.5 0
    outer loop
      vertex -10.9625 -4.88084 15
      vertex -9.7082 -7.05342 0
      vertex -9.7082 -7.05342 15
    endloop
  endfacet
  facet normal -0.743145 -0.669131 -0
    outer loop
      vertex -9.7082 -7.05342 0
      vertex -8.02957 -8.91774 0
      vertex -9.7082 -7.05342 15
    endloop
  endfacet
  facet normal -0.743145 -0.669131 0
    outer loop
      vertex -9.7082 -7.05342 15
      vertex -8.02957 -8.91774 0
      vertex -8.02957 -8.91774 15
    endloop
  endfacet
  facet normal -0.587785 -0.809017 0
    outer loop
      vertex -8.02957 -8.91774 15
      vertex -8.02957 -8.91774 0
      vertex -6 -10.3923 0
    endloop
  endfacet
  facet normal -0.587785 -0.809017 0
    outer loop
      vertex -6 -10.3923 15
      vertex -8.02957 -8.91774 15
      vertex -6 -10.3923 0
    endloop
  endfacet
  facet normal -0.406737 -0.913546 0
    outer loop
      vertex -6 -10.3923 15
      vertex -6 -10.3923 0
      vertex -3.7082 -11.4127 0
    endloop
  endfacet
  facet normal -0.406737 -0.913546 0
    outer loop
      vertex -3.7082 -11.4127 15
      vertex -6 -10.3923 15
      vertex -3.7082 -11.4127 0
    endloop
  endfacet
  facet normal -0.207912 -0.978148 0
    outer loop
      vertex -3.7082 -11.4127 15
      vertex -3.7082 -11.4127 0
      vertex -1.25434 -11.9343 0
    endloop
  endfacet
  facet normal -0.207912 -0.978148 0
    outer loop
      vertex -1.25434 -11.9343 15
      vertex -3.7082 -11.4127 15
      vertex -1.25434 -11.9343 0
    endloop
  endfacet
  facet normal 0 -1 0
    outer loop
      vertex -1.25434 -11.9343 15
      vertex -1.25434 -11.9343 0
      vertex 1.25434 -11.9343 0
    endloop
  endfacet
  facet normal 0 -1 0
    outer loop
      vertex 1.25434 -11.9343 15
      vertex -1.25434 -11.9343 15
      vertex 1.25434 -11.9343 0
    endloop
  endfacet
  facet normal 0.207912 -0.978148 0
    outer loop
      vertex 1.25434 -11.9343 15
      vertex 1.25434 -11.9343 0
      vertex 3.7082 -11.4127 0
    endloop
  endfacet
  facet normal 0.207912 -0.978148 0
    outer loop
      vertex 3.7082 -11.4127 15
      vertex 1.25434 -11.9343 15
      vertex 3.7082 -11.4127 0
    endloop
  endfacet
  facet normal 0.406737 -0.913546 0
    outer loop
      vertex 3.7082 -11.4127 15
      vertex 3.7082 -11.4127 0
      vertex 6 -10.3923 0
    endloop
  endfacet
  facet normal 0.406737 -0.913546 0
    outer loop
      vertex 6 -10.3923 15
      vertex 3.7082 -11.4127 15
      vertex 6 -10.3923 0
    endloop
  endfacet
  facet normal 0.587785 -0.809017 0
    outer loop
      vertex 6 -10.3923 15
      vertex 6 -10.3923 0
      vertex 8.02957 -8.91774 0
    endloop
  endfacet
  facet normal 0.587785 -0.809017 0
    outer loop
      vertex 8.02957 -8.91774 15
      vertex 6 -10.3923 15
      vertex 8.02957 -8.91774 0
    endloop
  endfacet
  facet normal 0.743145 -0.669131 0
    outer loop
      vertex 8.02957 -8.91774 15
      vertex 8.02957 -8.91774 0
      vertex 9.7082 -7.05342 0
    endloop
  endfacet
  facet normal 0.743145 -0.669131 0
    outer loop
      vertex 9.7082 -7.05342 15
      vertex 8.02957 -8.91774 15
      vertex 9.7082 -7.05342 0
    endloop
  endfacet
  facet normal 0.866025 -0.5 0
    outer loop
      vertex 9.7082 -7.05342 15
      vertex 9.7082 -7.05342 0
      vertex 10.9625 -4.88084 0
    endloop
  endfacet
  facet normal 0.866025 -0.5 0
    outer loop
      vertex 10.9625 -4.88084 15
      vertex 9.7082 -7.05342 15
      vertex 10.9625 -4.88084 0
    endloop
  endfacet
  facet normal 0.951057 -0.309017 0
    outer loop
      vertex 10.9625 -4.88084 15
      vertex 10.9625 -4.88084 0
      vertex 11.7378 -2.49494 0
    endloop
  endfacet
  facet normal 0.951057 -0.309017 0
    outer loop
      vertex 11.7378 -2.49494 15
      vertex 10.9625 -4.88084 15
      vertex 11.7378 -2.49494 0
    endloop
  endfacet
  facet normal 0.994522 -0.104529 0
    outer loop
      vertex 11.7378 -2.49494 15
      vertex 11.7378 -2.49494 0
      vertex 12 0 0
    endloop
  endfacet
  facet normal 0.994522 -0.104529 0
    outer loop
      vertex 12 0 15
      vertex 11.7378 -2.49494 15
      vertex 12 0 0
    endloop
  endfacet
  facet normal 0.994522 0.104529 0
    outer loop
      vertex 12 0 0
      vertex 11.7378 2.49494 0
      vertex 11.7378 2.49494 15
    endloop
  endfacet
  facet normal 0.994522 0.104529 -0
    outer loop
      vertex 12 0 15
      vertex 12 0 0
      vertex 11.7378 2.49494 15
    endloop
  endfacet
  facet normal 0.951057 0.309017 0
    outer loop
      vertex 11.7378 2.49494 0
      vertex 10.9625 4.88084 0
      vertex 10.9625 4.88084 15
    endloop
  endfacet
  facet normal 0.951057 0.309017 -0
    outer loop
      vertex 11.7378 2.49494 15
      vertex 11.7378 2.49494 0
      vertex 10.9625 4.88084 15
    endloop
  endfacet
  facet normal 0.866025 0.5 0
    outer loop
      vertex 10.9625 4.88084 0
      vertex 9.7082 7.05342 0
      vertex 9.7082 7.05342 15
    endloop
  endfacet
  facet normal 0.866025 0.5 -0
    outer loop
      vertex 10.9625 4.88084 15
      vertex 10.9625 4.88084 0
      vertex 9.7082 7.05342 15
    endloop
  endfacet
  facet normal 0.743145 0.669131 0
    outer loop
      vertex 9.7082 7.05342 0
      vertex 8.02957 8.91774 0
      vertex 8.02957 8.91774 15
    endloop
  endfacet
  facet normal 0.743145 0.669131 -0
    outer loop
      vertex 9.7082 7.05342 15
      vertex 9.7082 7.05342 0
      vertex 8.02957 8.91774 15
    endloop
  endfacet
  facet normal 0.587785 0.809017 0
    outer loop
      vertex 6 10.3923 0
      vertex 6 10.3923 15
      vertex 8.02957 8.91774 0
    endloop
  endfacet
  facet normal 0.587785 0.809017 0
    outer loop
      vertex 8.02957 8.91774 0
      vertex 6 10.3923 15
      vertex 8.02957 8.91774 15
    endloop
  endfacet
  facet normal 0.406737 0.913546 0
    outer loop
      vertex 3.7082 11.4127 0
      vertex 3.7082 11.4127 15
      vertex 6 10.3923 0
    endloop
  endfacet
  facet normal 0.406737 0.913546 0
    outer loop
      vertex 6 10.3923 0
      vertex 3.7082 11.4127 15
      vertex 6 10.3923 15
    endloop
  endfacet
  facet normal 0.207912 0.978148 0
    outer loop
      vertex 1.25434 11.9343 0
      vertex 1.25434 11.9343 15
      vertex 3.7082 11.4127 0
    endloop
  endfacet
  facet normal 0.207912 0.978148 0
    outer loop
      vertex 3.7082 11.4127 0
      vertex 1.25434 11.9343 15
      vertex 3.7082 11.4127 15
    endloop
  endfacet
  facet normal 0 1 0
    outer loop
      vertex -1.25434 11.9343 0
      vertex -1.25434 11.9343 15
      vertex 1.25434 11.9343 0
    endloop
  endfacet
  facet normal 0 1 0
    outer loop
      vertex 1.25434 11.9343 0
      vertex -1.25434 11.9343 15
      vertex 1.25434 11.9343 15
    endloop
  endfacet
  facet normal -0.207912 0.978148 0
    outer loop
      vertex -3.7082 11.4127 0
      vertex -3.7082 11.4127 15
      vertex -1.25434 11.9343 0
    endloop
  endfacet
  facet normal -0.207912 0.978148 0
    outer loop
      vertex -1.25434 11.9343 0
      vertex -3.7082 11.4127 15
      vertex -1.25434 11.9343 15
    endloop
  endfacet
  facet normal -0.406737 0.913546 0
    outer loop
      vertex -6 10.3923 0
      vertex -6 10.3923 15
      vertex -3.7082 11.4127 0
    endloop
  endfacet
  facet normal -0.406737 0.913546 0
    outer loop
      vertex -3.7082 11.4127 0
      vertex -6 10.3923 15
      vertex -3.7082 11.4127 15
    endloop
  endfacet
  facet normal -0.587785 0.809017 0
    outer loop
      vertex -8.02957 8.91774 0
      vertex -8.02957 8.91774 15
      vertex -6 10.3923 0
    endloop
  endfacet
  facet normal -0.587785 0.809017 0
    outer loop
      vertex -6 10.3923 0
      vertex -8.02957 8.91774 15
      vertex -6 10.3923 15
    endloop
  endfacet
  facet normal -0.743145 0.669131 0
    outer loop
      vertex -9.7082 7.05342 0
      vertex -9.7082 7.05342 15
      vertex -8.02957 8.91774 0
    endloop
  endfacet
  facet normal -0.743145 0.669131 0
    outer loop
      vertex -8.02957 8.91774 0
      vertex -9.7082 7.05342 15
      vertex -8.02957 8.91774 15
    endloop
  endfacet
  facet normal -0.866025 0.5 0
    outer loop
      vertex -10.9625 4.88084 0
      vertex -10.9625 4.88084 15
      vertex -9.7082 7.05342 0
    endloop
  endfacet
  facet normal -0.866025 0.5 0
    outer loop
      vertex -9.7082 7.05342 0
      vertex -10.9625 4.88084 15
      vertex -9.7082 7.05342 15
    endloop
  endfacet
  facet normal -0.951057 0.309017 0
    outer loop
      vertex -11.7378 2.49494 0
      vertex -11.7378 2.49494 15
      vertex -10.9625 4.88084 0
    endloop
  endfacet
  facet normal -0.951057 0.309017 0
    outer loop
      vertex -10.9625 4.88084 0
      vertex -11.7378 2.49494 15
      vertex -10.9625 4.88084 15
    endloop
  endfacet
  facet normal 1 0 0
    outer loop
      vertex -8.94724 0.973071 0
      vertex -8.94724 0.973071 13
      vertex -8.94724 -0.973071 13
    endloop
  endfacet
  facet normal 1 0 0
    outer loop
      vertex -8.94724 -0.973071 0
      vertex -8.94724 0.973071 0
      vertex -8.94724 -0.973071 13
    endloop
  endfacet
  facet normal 0.976621 -0.21497 0
    outer loop
      vertex -8.52888 2.87371 0
      vertex -8.52888 2.87371 13
      vertex -8.94724 0.973071 13
    endloop
  endfacet
  facet normal 0.976621 -0.21497 0
    outer loop
      vertex -8.94724 0.973071 0
      vertex -8.52888 2.87371 0
      vertex -8.94724 0.973071 13
    endloop
  endfacet
  facet normal 0.907575 -0.419889 0
    outer loop
      vertex -7.71171 4.63998 0
      vertex -7.71171 4.63998 13
      vertex -8.52888 2.87371 13
    endloop
  endfacet
  facet normal 0.907575 -0.419889 0
    outer loop
      vertex -8.52888 2.87371 0
      vertex -7.71171 4.63998 0
      vertex -8.52888 2.87371 13
    endloop
  endfacet
  facet normal 0.796093 -0.605175 0
    outer loop
      vertex -6.53396 6.18929 0
      vertex -6.53396 6.18929 13
      vertex -7.71171 4.63998 13
    endloop
  endfacet
  facet normal 0.796093 -0.605175 0
    outer loop
      vertex -7.71171 4.63998 0
      vertex -6.53396 6.18929 0
      vertex -7.71171 4.63998 13
    endloop
  endfacet
  facet normal 0.647387 -0.762162 0
    outer loop
      vertex -5.05068 7.4492 0
      vertex -5.05068 7.4492 13
      vertex -6.53396 6.18929 13
    endloop
  endfacet
  facet normal 0.647387 -0.762162 0
    outer loop
      vertex -6.53396 6.18929 0
      vertex -5.05068 7.4492 0
      vertex -6.53396 6.18929 13
    endloop
  endfacet
  facet normal 0.468408 -0.883512 0
    outer loop
      vertex -3.33124 8.36079 0
      vertex -3.33124 8.36079 13
      vertex -5.05068 7.4492 13
    endloop
  endfacet
  facet normal 0.468408 -0.883512 0
    outer loop
      vertex -5.05068 7.4492 0
      vertex -3.33124 8.36079 0
      vertex -5.05068 7.4492 13
    endloop
  endfacet
  facet normal 0.267529 -0.96355 0
    outer loop
      vertex -1.45604 8.88144 0
      vertex -1.45604 8.88144 13
      vertex -3.33124 8.36079 13
    endloop
  endfacet
  facet normal 0.267529 -0.96355 0
    outer loop
      vertex -3.33124 8.36079 0
      vertex -1.45604 8.88144 0
      vertex -3.33124 8.36079 13
    endloop
  endfacet
  facet normal 0.0541389 -0.998533 0
    outer loop
      vertex 0.48725 8.9868 0
      vertex 0.48725 8.9868 13
      vertex -1.45604 8.88144 13
    endloop
  endfacet
  facet normal 0.0541389 -0.998533 0
    outer loop
      vertex -1.45604 8.88144 0
      vertex 0.48725 8.9868 0
      vertex -1.45604 8.88144 13
    endloop
  endfacet
  facet normal -0.161782 -0.986827 -0
    outer loop
      vertex 2.40775 8.67195 0
      vertex 2.40775 8.67195 13
      vertex 0.48725 8.9868 13
    endloop
  endfacet
  facet normal -0.161782 -0.986827 -0
    outer loop
      vertex 0.48725 8.9868 0
      vertex 2.40775 8.67195 0
      vertex 0.48725 8.9868 13
    endloop
  endfacet
  facet normal -0.370138 -0.928977 -0
    outer loop
      vertex 4.21568 7.95161 0
      vertex 4.21568 7.95161 13
      vertex 2.40775 8.67195 13
    endloop
  endfacet
  facet normal -0.370138 -0.928977 -0
    outer loop
      vertex 2.40775 8.67195 0
      vertex 4.21568 7.95161 0
      vertex 2.40775 8.67195 13
    endloop
  endfacet
  facet normal -0.561187 -0.827689 -0
    outer loop
      vertex 5.82648 6.85946 0
      vertex 5.82648 6.85946 13
      vertex 4.21568 7.95161 13
    endloop
  endfacet
  facet normal -0.561187 -0.827689 -0
    outer loop
      vertex 4.21568 7.95161 0
      vertex 5.82648 6.85946 0
      vertex 4.21568 7.95161 13
    endloop
  endfacet
  facet normal -0.725995 -0.6877 0
    outer loop
      vertex 7.16484 5.44657 13
      vertex 5.82648 6.85946 13
      vertex 7.16484 5.44657 0
    endloop
  endfacet
  facet normal -0.725995 -0.6877 0
    outer loop
      vertex 7.16484 5.44657 0
      vertex 5.82648 6.85946 13
      vertex 5.82648 6.85946 0
    endloop
  endfacet
  facet normal -0.856857 -0.515554 0
    outer loop
      vertex 8.16818 3.779 13
      vertex 7.16484 5.44657 13
      vertex 8.16818 3.779 0
    endloop
  endfacet
  facet normal -0.856857 -0.515554 0
    outer loop
      vertex 8.16818 3.779 0
      vertex 7.16484 5.44657 13
      vertex 7.16484 5.44657 0
    endloop
  endfacet
  facet normal -0.947653 -0.319301 0
    outer loop
      vertex 8.78958 1.93473 13
      vertex 8.16818 3.779 13
      vertex 8.78958 1.93473 0
    endloop
  endfacet
  facet normal -0.947653 -0.319301 0
    outer loop
      vertex 8.78958 1.93473 0
      vertex 8.16818 3.779 13
      vertex 8.16818 3.779 0
    endloop
  endfacet
  facet normal -0.994138 -0.108119 0
    outer loop
      vertex 9 0 13
      vertex 8.78958 1.93473 13
      vertex 9 0 0
    endloop
  endfacet
  facet normal -0.994138 -0.108119 0
    outer loop
      vertex 9 0 0
      vertex 8.78958 1.93473 13
      vertex 8.78958 1.93473 0
    endloop
  endfacet
  facet normal -0.994138 0.108119 0
    outer loop
      vertex 9 0 13
      vertex 9 0 0
      vertex 8.78958 -1.93473 13
    endloop
  endfacet
  facet normal -0.994138 0.108119 0
    outer loop
      vertex 8.78958 -1.93473 13
      vertex 9 0 0
      vertex 8.78958 -1.93473 0
    endloop
  endfacet
  facet normal -0.947653 0.319301 0
    outer loop
      vertex 8.78958 -1.93473 13
      vertex 8.78958 -1.93473 0
      vertex 8.16818 -3.779 13
    endloop
  endfacet
  facet normal -0.947653 0.319301 0
    outer loop
      vertex 8.16818 -3.779 13
      vertex 8.78958 -1.93473 0
      vertex 8.16818 -3.779 0
    endloop
  endfacet
  facet normal -0.856857 0.515554 0
    outer loop
      vertex 8.16818 -3.779 13
      vertex 8.16818 -3.779 0
      vertex 7.16484 -5.44657 13
    endloop
  endfacet
  facet normal -0.856857 0.515554 0
    outer loop
      vertex 7.16484 -5.44657 13
      vertex 8.16818 -3.779 0
      vertex 7.16484 -5.44657 0
    endloop
  endfacet
  facet normal -0.725995 0.6877 0
    outer loop
      vertex 7.16484 -5.44657 13
      vertex 7.16484 -5.44657 0
      vertex 5.82648 -6.85946 13
    endloop
  endfacet
  facet normal -0.725995 0.6877 0
    outer loop
      vertex 5.82648 -6.85946 13
      vertex 7.16484 -5.44657 0
      vertex 5.82648 -6.85946 0
    endloop
  endfacet
  facet normal -0.561187 0.827689 0
    outer loop
      vertex 5.82648 -6.85946 13
      vertex 5.82648 -6.85946 0
      vertex 4.21568 -7.95161 13
    endloop
  endfacet
  facet normal -0.561187 0.827689 0
    outer loop
      vertex 4.21568 -7.95161 13
      vertex 5.82648 -6.85946 0
      vertex 4.21568 -7.95161 0
    endloop
  endfacet
  facet normal -0.370138 0.928977 0
    outer loop
      vertex 4.21568 -7.95161 13
      vertex 4.21568 -7.95161 0
      vertex 2.40775 -8.67195 13
    endloop
  endfacet
  facet normal -0.370138 0.928977 0
    outer loop
      vertex 2.40775 -8.67195 13
      vertex 4.21568 -7.95161 0
      vertex 2.40775 -8.67195 0
    endloop
  endfacet
  facet normal -0.161782 0.986827 0
    outer loop
      vertex 2.40775 -8.67195 13
      vertex 2.40775 -8.67195 0
      vertex 0.48725 -8.9868 13
    endloop
  endfacet
  facet normal -0.161782 0.986827 0
    outer loop
      vertex 0.48725 -8.9868 13
      vertex 2.40775 -8.67195 0
      vertex 0.48725 -8.9868 0
    endloop
  endfacet
  facet normal 0.0541389 0.998533 -0
    outer loop
      vertex 0.48725 -8.9868 13
      vertex 0.48725 -8.9868 0
      vertex -1.45604 -8.88144 13
    endloop
  endfacet
  facet normal 0.0541389 0.998533 -0
    outer loop
      vertex -1.45604 -8.88144 13
      vertex 0.48725 -8.9868 0
      vertex -1.45604 -8.88144 0
    endloop
  endfacet
  facet normal 0.267529 0.96355 -0
    outer loop
      vertex -1.45604 -8.88144 13
      vertex -1.45604 -8.88144 0
      vertex -3.33124 -8.36079 13
    endloop
  endfacet
  facet normal 0.267529 0.96355 -0
    outer loop
      vertex -3.33124 -8.36079 13
      vertex -1.45604 -8.88144 0
      vertex -3.33124 -8.36079 0
    endloop
  endfacet
  facet normal 0.468408 0.883512 -0
    outer loop
      vertex -3.33124 -8.36079 13
      vertex -3.33124 -8.36079 0
      vertex -5.05068 -7.4492 13
    endloop
  endfacet
  facet normal 0.468408 0.883512 -0
    outer loop
      vertex -5.05068 -7.4492 13
      vertex -3.33124 -8.36079 0
      vertex -5.05068 -7.4492 0
    endloop
  endfacet
  facet normal 0.647387 0.762162 -0
    outer loop
      vertex -5.05068 -7.4492 13
      vertex -5.05068 -7.4492 0
      vertex -6.53396 -6.18929 13
    endloop
  endfacet
  facet normal 0.647387 0.762162 -0
    outer loop
      vertex -6.53396 -6.18929 13
      vertex -5.05068 -7.4492 0
      vertex -6.53396 -6.18929 0
    endloop
  endfacet
  facet normal 0.796093 0.605175 0
    outer loop
      vertex -7.71171 -4.63998 13
      vertex -6.53396 -6.18929 13
      vertex -6.53396 -6.18929 0
    endloop
  endfacet
  facet normal 0.796093 0.605175 0
    outer loop
      vertex -7.71171 -4.63998 0
      vertex -7.71171 -4.63998 13
      vertex -6.53396 -6.18929 0
    endloop
  endfacet
  facet normal 0.907575 0.419889 0
    outer loop
      vertex -8.52888 -2.87371 13
      vertex -7.71171 -4.63998 13
      vertex -7.71171 -4.63998 0
    endloop
  endfacet
  facet normal 0.907575 0.419889 0
    outer loop
      vertex -8.52888 -2.87371 0
      vertex -8.52888 -2.87371 13
      vertex -7.71171 -4.63998 0
    endloop
  endfacet
  facet normal 0.976621 0.21497 0
    outer loop
      vertex -8.94724 -0.973071 13
      vertex -8.52888 -2.87371 13
      vertex -8.52888 -2.87371 0
    endloop
  endfacet
  facet normal 0.976621 0.21497 0
    outer loop
      vertex -8.94724 -0.973071 0
      vertex -8.94724 -0.973071 13
      vertex -8.52888 -2.87371 0
    endloop
  endfacet
  facet normal 0 0 1
    outer loop
      vertex -11.7378 2.49494 15
      vertex -12 0 15
      vertex -11.7378 -2.49494 15
    endloop
  endfacet
  facet normal 0 0 1
    outer loop
      vertex -9.7082 -7.05342 15
      vertex -11.7378 2.49494 15
      vertex -10.9625 -4.88084 15
    endloop
  endfacet
  facet normal 0 0 1
    outer loop
      vertex -10.9625 -4.88084 15
      vertex -11.7378 2.49494 15
      vertex -11.7378 -2.49494 15
    endloop
  endfacet
  facet normal 0 0 1
    outer loop
      vertex -8.02957 -8.91774 15
      vertex -11.7378 2.49494 15
      vertex -9.7082 -7.05342 15
    endloop
  endfacet
  facet normal 0 0 1
    outer loop
      vertex -6 -10.3923 15
      vertex -11.7378 2.49494 15
      vertex -8.02957 -8.91774 15
    endloop
  endfacet
  facet normal 0 0 1
    outer loop
      vertex -3.7082 -11.4127 15
      vertex -11.7378 2.49494 15
      vertex -6 -10.3923 15
    endloop
  endfacet
  facet normal 0 0 1
    outer loop
      vertex -1.25434 -11.9343 15
      vertex -11.7378 2.49494 15
      vertex -3.7082 -11.4127 15
    endloop
  endfacet
  facet normal -0 -0 1
    outer loop
      vertex -5.98809 -5.30498 15
      vertex -11.7378 2.49494 15
      vertex -1.25434 -11.9343 15
    endloop
  endfacet
  facet normal 0 -0 1
    outer loop
      vertex 5.98809 -5.30498 15
      vertex 4.54452 -6.58387 15
      vertex 9.7082 -7.05342 15
    endloop
  endfacet
  facet normal 0 0 1
    outer loop
      vertex -7.76753 1.91452 15
      vertex -7.08365 3.71778 15
      vertex -11.7378 2.49494 15
    endloop
  endfacet
  facet normal -0 -0 1
    outer loop
      vertex -0.964293 -7.94167 15
      vertex -2.83684 -7.48013 15
      vertex 1.25434 -11.9343 15
    endloop
  endfacet
  facet normal -0 0 1
    outer loop
      vertex -7.08365 3.71778 15
      vertex -5.98809 5.30498 15
      vertex -11.7378 2.49494 15
    endloop
  endfacet
  facet normal 0 0 1
    outer loop
      vertex 4.54452 6.58387 15
      vertex 5.98809 5.30498 15
      vertex 9.7082 7.05342 15
    endloop
  endfacet
  facet normal 0 -0 1
    outer loop
      vertex 1.25434 11.9343 15
      vertex -11.7378 2.49494 15
      vertex 3.7082 11.4127 15
    endloop
  endfacet
  facet normal 0 -0 1
    outer loop
      vertex -1.25434 11.9343 15
      vertex -11.7378 2.49494 15
      vertex 1.25434 11.9343 15
    endloop
  endfacet
  facet normal 0 -0 1
    outer loop
      vertex -3.7082 11.4127 15
      vertex -11.7378 2.49494 15
      vertex -1.25434 11.9343 15
    endloop
  endfacet
  facet normal 0 -0 1
    outer loop
      vertex -6 10.3923 15
      vertex -11.7378 2.49494 15
      vertex -3.7082 11.4127 15
    endloop
  endfacet
  facet normal 0 -0 1
    outer loop
      vertex -8.02957 8.91774 15
      vertex -11.7378 2.49494 15
      vertex -6 10.3923 15
    endloop
  endfacet
  facet normal 0 -0 1
    outer loop
      vertex -9.7082 7.05342 15
      vertex -11.7378 2.49494 15
      vertex -8.02957 8.91774 15
    endloop
  endfacet
  facet normal 0 -0 1
    outer loop
      vertex -10.9625 4.88084 15
      vertex -11.7378 2.49494 15
      vertex -9.7082 7.05342 15
    endloop
  endfacet
  facet normal 0 -0 1
    outer loop
      vertex 0.964293 -7.94167 15
      vertex -0.964293 -7.94167 15
      vertex 3.7082 -11.4127 15
    endloop
  endfacet
  facet normal 0 -0 1
    outer loop
      vertex 7.76753 -1.91452 15
      vertex 7.08365 -3.71778 15
      vertex 10.9625 -4.88084 15
    endloop
  endfacet
  facet normal 0 0 1
    outer loop
      vertex 5.98809 5.30498 15
      vertex 7.08365 3.71778 15
      vertex 10.9625 4.88084 15
    endloop
  endfacet
  facet normal 0 0 1
    outer loop
      vertex 2.83684 7.48013 15
      vertex 4.54452 6.58387 15
      vertex 8.02957 8.91774 15
    endloop
  endfacet
  facet normal 0 0 1
    outer loop
      vertex -4.54452 6.58387 15
      vertex -11.7378 2.49494 15
      vertex -5.98809 5.30498 15
    endloop
  endfacet
  facet normal 0 0 1
    outer loop
      vertex 3.7082 11.4127 15
      vertex -11.7378 2.49494 15
      vertex -4.54452 6.58387 15
    endloop
  endfacet
  facet normal 0 0 1
    outer loop
      vertex -0.964293 7.94167 15
      vertex 0.964293 7.94167 15
      vertex 6 10.3923 15
    endloop
  endfacet
  facet normal 0 0 1
    outer loop
      vertex 3.7082 11.4127 15
      vertex -4.54452 6.58387 15
      vertex -2.83684 7.48013 15
    endloop
  endfacet
  facet normal 0 -0 1
    outer loop
      vertex 3.7082 11.4127 15
      vertex -0.964293 7.94167 15
      vertex 6 10.3923 15
    endloop
  endfacet
  facet normal 0 -0 1
    outer loop
      vertex 6 10.3923 15
      vertex 0.964293 7.94167 15
      vertex 8.02957 8.91774 15
    endloop
  endfacet
  facet normal 0 0 1
    outer loop
      vertex -2.83684 7.48013 15
      vertex -0.964293 7.94167 15
      vertex 3.7082 11.4127 15
    endloop
  endfacet
  facet normal 0 0 1
    outer loop
      vertex 0.964293 7.94167 15
      vertex 2.83684 7.48013 15
      vertex 8.02957 8.91774 15
    endloop
  endfacet
  facet normal 0 0 1
    outer loop
      vertex 7.76753 1.91452 15
      vertex 8 0 15
      vertex 12 0 15
    endloop
  endfacet
  facet normal 0 -0 1
    outer loop
      vertex 8.02957 8.91774 15
      vertex 4.54452 6.58387 15
      vertex 9.7082 7.05342 15
    endloop
  endfacet
  facet normal 0 -0 1
    outer loop
      vertex 9.7082 7.05342 15
      vertex 5.98809 5.30498 15
      vertex 10.9625 4.88084 15
    endloop
  endfacet
  facet normal 0 -0 1
    outer loop
      vertex 10.9625 4.88084 15
      vertex 7.08365 3.71778 15
      vertex 11.7378 2.49494 15
    endloop
  endfacet
  facet normal 0 -0 1
    outer loop
      vertex 11.7378 2.49494 15
      vertex 7.76753 1.91452 15
      vertex 12 0 15
    endloop
  endfacet
  facet normal 0 0 1
    outer loop
      vertex 12 0 15
      vertex 8 0 15
      vertex 11.7378 -2.49494 15
    endloop
  endfacet
  facet normal -0 0 1
    outer loop
      vertex 11.7378 -2.49494 15
      vertex 7.76753 -1.91452 15
      vertex 10.9625 -4.88084 15
    endloop
  endfacet
  facet normal 0 0 1
    outer loop
      vertex 7.08365 3.71778 15
      vertex 7.76753 1.91452 15
      vertex 11.7378 2.49494 15
    endloop
  endfacet
  facet normal -0 0 1
    outer loop
      vertex 10.9625 -4.88084 15
      vertex 7.08365 -3.71778 15
      vertex 9.7082 -7.05342 15
    endloop
  endfacet
  facet normal 0 -0 1
    outer loop
      vertex 7.08365 -3.71778 15
      vertex 5.98809 -5.30498 15
      vertex 9.7082 -7.05342 15
    endloop
  endfacet
  facet normal -0 0 1
    outer loop
      vertex 9.7082 -7.05342 15
      vertex 4.54452 -6.58387 15
      vertex 8.02957 -8.91774 15
    endloop
  endfacet
  facet normal 0 -0 1
    outer loop
      vertex 8 0 15
      vertex 7.76753 -1.91452 15
      vertex 11.7378 -2.49494 15
    endloop
  endfacet
  facet normal -0 0 1
    outer loop
      vertex 8.02957 -8.91774 15
      vertex 2.83684 -7.48013 15
      vertex 6 -10.3923 15
    endloop
  endfacet
  facet normal -0 0 1
    outer loop
      vertex 6 -10.3923 15
      vertex 0.964293 -7.94167 15
      vertex 3.7082 -11.4127 15
    endloop
  endfacet
  facet normal 0 -0 1
    outer loop
      vertex 4.54452 -6.58387 15
      vertex 2.83684 -7.48013 15
      vertex 8.02957 -8.91774 15
    endloop
  endfacet
  facet normal -0 0 1
    outer loop
      vertex 3.7082 -11.4127 15
      vertex -0.964293 -7.94167 15
      vertex 1.25434 -11.9343 15
    endloop
  endfacet
  facet normal -0 0 1
    outer loop
      vertex 1.25434 -11.9343 15
      vertex -2.83684 -7.48013 15
      vertex -1.25434 -11.9343 15
    endloop
  endfacet
  facet normal -0 -0 1
    outer loop
      vertex -2.83684 -7.48013 15
      vertex -4.54452 -6.58387 15
      vertex -1.25434 -11.9343 15
    endloop
  endfacet
  facet normal -0 -0 1
    outer loop
      vertex -7.08365 -3.71778 15
      vertex -11.7378 2.49494 15
      vertex -5.98809 -5.30498 15
    endloop
  endfacet
  facet normal -0 -0 1
    outer loop
      vertex -7.76753 -1.91452 15
      vertex -11.7378 2.49494 15
      vertex -7.08365 -3.71778 15
    endloop
  endfacet
  facet normal -0 -0 1
    outer loop
      vertex -4.54452 -6.58387 15
      vertex -5.98809 -5.30498 15
      vertex -1.25434 -11.9343 15
    endloop
  endfacet
  facet normal 0 0 1
    outer loop
      vertex -7.76753 -1.91452 15
      vertex -8 0 15
      vertex -11.7378 2.49494 15
    endloop
  endfacet
  facet normal 0 -0 1
    outer loop
      vertex 2.83684 -7.48013 15
      vertex 0.964293 -7.94167 15
      vertex 6 -10.3923 15
    endloop
  endfacet
  facet normal 0 0 1
    outer loop
      vertex -8 0 15
      vertex -7.76753 1.91452 15
      vertex -11.7378 2.49494 15
    endloop
  endfacet
  facet normal -0 0 -1
    outer loop
      vertex -8.52888 2.87371 13
      vertex -7.71171 4.63998 13
      vertex -8.94724 0.973071 13
    endloop
  endfacet
  facet normal 0 0 -1
    outer loop
      vertex -8.94724 0.973071 13
      vertex -7.71171 4.63998 13
      vertex -6.53396 6.18929 13
    endloop
  endfacet
  facet normal 0 0 -1
    outer loop
      vertex -8.94724 0.973071 13
      vertex -6.53396 6.18929 13
      vertex -5.05068 7.4492 13
    endloop
  endfacet
  facet normal 0 0 -1
    outer loop
      vertex -8.94724 0.973071 13
      vertex -5.05068 7.4492 13
      vertex -3.33124 8.36079 13
    endloop
  endfacet
  facet normal 0 0 -1
    outer loop
      vertex -8.94724 0.973071 13
      vertex -3.33124 8.36079 13
      vertex -1.45604 8.88144 13
    endloop
  endfacet
  facet normal 0 0 -1
    outer loop
      vertex -8.94724 0.973071 13
      vertex -1.45604 8.88144 13
      vertex 0.48725 8.9868 13
    endloop
  endfacet
  facet normal 0 0 -1
    outer loop
      vertex -8.94724 0.973071 13
      vertex 0.48725 8.9868 13
      vertex 2.40775 8.67195 13
    endloop
  endfacet
  facet normal 0 0 -1
    outer loop
      vertex -8.94724 0.973071 13
      vertex 2.40775 8.67195 13
      vertex 4.21568 7.95161 13
    endloop
  endfacet
  facet normal 0 0 -1
    outer loop
      vertex -8.94724 0.973071 13
      vertex 4.21568 7.95161 13
      vertex 5.82648 6.85946 13
    endloop
  endfacet
  facet normal 0 0 -1
    outer loop
      vertex -8.94724 0.973071 13
      vertex 5.82648 6.85946 13
      vertex 7.16484 5.44657 13
    endloop
  endfacet
  facet normal 0 0 -1
    outer loop
      vertex -8.94724 0.973071 13
      vertex 7.16484 5.44657 13
      vertex 8.16818 3.779 13
    endloop
  endfacet
  facet normal 0 0 -1
    outer loop
      vertex -8.94724 0.973071 13
      vertex 8.16818 3.779 13
      vertex 8.78958 1.93473 13
    endloop
  endfacet
  facet normal -0 0 -1
    outer loop
      vertex -8.94724 0.973071 13
      vertex 8.78958 1.93473 13
      vertex 9 0 13
    endloop
  endfacet
  facet normal 0 0 -1
    outer loop
      vertex -8.94724 0.973071 13
      vertex 9 0 13
      vertex 8.78958 -1.93473 13
    endloop
  endfacet
  facet normal 0 0 -1
    outer loop
      vertex -8.94724 0.973071 13
      vertex 8.78958 -1.93473 13
      vertex 8.16818 -3.779 13
    endloop
  endfacet
  facet normal 0 0 -1
    outer loop
      vertex -8.94724 0.973071 13
      vertex 8.16818 -3.779 13
      vertex 7.16484 -5.44657 13
    endloop
  endfacet
  facet normal 0 0 -1
    outer loop
      vertex -8.94724 0.973071 13
      vertex 7.16484 -5.44657 13
      vertex 5.82648 -6.85946 13
    endloop
  endfacet
  facet normal 0 0 -1
    outer loop
      vertex -8.94724 0.973071 13
      vertex 5.82648 -6.85946 13
      vertex 4.21568 -7.95161 13
    endloop
  endfacet
  facet normal 0 0 -1
    outer loop
      vertex -8.94724 0.973071 13
      vertex 4.21568 -7.95161 13
      vertex 2.40775 -8.67195 13
    endloop
  endfacet
  facet normal 0 0 -1
    outer loop
      vertex -8.94724 0.973071 13
      vertex 2.40775 -8.67195 13
      vertex 0.48725 -8.9868 13
    endloop
  endfacet
  facet normal 0 0 -1
    outer loop
      vertex -8.94724 0.973071 13
      vertex 0.48725 -8.9868 13
      vertex -1.45604 -8.88144 13
    endloop
  endfacet
  facet normal 0 0 -1
    outer loop
      vertex -8.94724 0.973071 13
      vertex -1.45604 -8.88144 13
      vertex -3.33124 -8.36079 13
    endloop
  endfacet
  facet normal 0 0 -1
    outer loop
      vertex -8.94724 0.973071 13
      vertex -3.33124 -8.36079 13
      vertex -5.05068 -7.4492 13
    endloop
  endfacet
  facet normal 0 0 -1
    outer loop
      vertex -8.94724 0.973071 13
      vertex -5.05068 -7.4492 13
      vertex -6.53396 -6.18929 13
    endloop
  endfacet
  facet normal 0 0 -1
    outer loop
      vertex -8.94724 0.973071 13
      vertex -6.53396 -6.18929 13
      vertex -7.71171 -4.63998 13
    endloop
  endfacet
  facet normal 0 0 -1
    outer loop
      vertex -8.94724 0.973071 13
      vertex -7.71171 -4.63998 13
      vertex -8.52888 -2.87371 13
    endloop
  endfacet
  facet normal 0 0 -1
    outer loop
      vertex -8.94724 0.973071 13
      vertex -8.52888 -2.87371 13
      vertex -8.94724 -0.973071 13
    endloop
  endfacet
  facet normal -0.992709 -0.120536 -0
    outer loop
      vertex -8 0 15
      vertex -7.76753 -1.91452 15
      vertex -8 0 27
    endloop
  endfacet
  facet normal -0.992709 -0.120536 0
    outer loop
      vertex -8 0 27
      vertex -7.76753 -1.91452 15
      vertex -7.76753 -1.91452 27
    endloop
  endfacet
  facet normal -0.935016 -0.354605 -0
    outer loop
      vertex -7.76753 -1.91452 15
      vertex -7.08365 -3.71778 15
      vertex -7.76753 -1.91452 27
    endloop
  endfacet
  facet normal -0.935016 -0.354605 0
    outer loop
      vertex -7.76753 -1.91452 27
      vertex -7.08365 -3.71778 15
      vertex -7.08365 -3.71778 27
    endloop
  endfacet
  facet normal -0.822984 -0.568065 -0
    outer loop
      vertex -7.08365 -3.71778 15
      vertex -5.98809 -5.30498 15
      vertex -7.08365 -3.71778 27
    endloop
  endfacet
  facet normal -0.822984 -0.568065 0
    outer loop
      vertex -7.08365 -3.71778 27
      vertex -5.98809 -5.30498 15
      vertex -5.98809 -5.30498 27
    endloop
  endfacet
  facet normal -0.663123 -0.748511 0
    outer loop
      vertex -5.98809 -5.30498 27
      vertex -5.98809 -5.30498 15
      vertex -4.54452 -6.58387 15
    endloop
  endfacet
  facet normal -0.663123 -0.748511 0
    outer loop
      vertex -4.54452 -6.58387 27
      vertex -5.98809 -5.30498 27
      vertex -4.54452 -6.58387 15
    endloop
  endfacet
  facet normal -0.464723 -0.885456 0
    outer loop
      vertex -4.54452 -6.58387 27
      vertex -4.54452 -6.58387 15
      vertex -2.83684 -7.48013 15
    endloop
  endfacet
  facet normal -0.464723 -0.885456 0
    outer loop
      vertex -2.83684 -7.48013 27
      vertex -4.54452 -6.58387 27
      vertex -2.83684 -7.48013 15
    endloop
  endfacet
  facet normal -0.239316 -0.970942 0
    outer loop
      vertex -2.83684 -7.48013 27
      vertex -2.83684 -7.48013 15
      vertex -0.964293 -7.94167 15
    endloop
  endfacet
  facet normal -0.239316 -0.970942 0
    outer loop
      vertex -0.964293 -7.94167 27
      vertex -2.83684 -7.48013 27
      vertex -0.964293 -7.94167 15
    endloop
  endfacet
  facet normal 0 -1 0
    outer loop
      vertex -0.964293 -7.94167 27
      vertex -0.964293 -7.94167 15
      vertex 0.964293 -7.94167 15
    endloop
  endfacet
  facet normal 0 -1 0
    outer loop
      vertex 0.964293 -7.94167 27
      vertex -0.964293 -7.94167 27
      vertex 0.964293 -7.94167 15
    endloop
  endfacet
  facet normal 0.239316 -0.970942 0
    outer loop
      vertex 0.964293 -7.94167 27
      vertex 0.964293 -7.94167 15
      vertex 2.83684 -7.48013 15
    endloop
  endfacet
  facet normal 0.239316 -0.970942 0
    outer loop
      vertex 2.83684 -7.48013 27
      vertex 0.964293 -7.94167 27
      vertex 2.83684 -7.48013 15
    endloop
  endfacet
  facet normal 0.464723 -0.885456 0
    outer loop
      vertex 2.83684 -7.48013 27
      vertex 2.83684 -7.48013 15
      vertex 4.54452 -6.58387 15
    endloop
  endfacet
  facet normal 0.464723 -0.885456 0
    outer loop
      vertex 4.54452 -6.58387 27
      vertex 2.83684 -7.48013 27
      vertex 4.54452 -6.58387 15
    endloop
  endfacet
  facet normal 0.663123 -0.748511 0
    outer loop
      vertex 4.54452 -6.58387 27
      vertex 4.54452 -6.58387 15
      vertex 5.98809 -5.30498 15
    endloop
  endfacet
  facet normal 0.663123 -0.748511 0
    outer loop
      vertex 5.98809 -5.30498 27
      vertex 4.54452 -6.58387 27
      vertex 5.98809 -5.30498 15
    endloop
  endfacet
  facet normal 0.822984 -0.568065 0
    outer loop
      vertex 5.98809 -5.30498 27
      vertex 5.98809 -5.30498 15
      vertex 7.08365 -3.71778 15
    endloop
  endfacet
  facet normal 0.822984 -0.568065 0
    outer loop
      vertex 7.08365 -3.71778 27
      vertex 5.98809 -5.30498 27
      vertex 7.08365 -3.71778 15
    endloop
  endfacet
  facet normal 0.935016 -0.354605 3.03933e-16
    outer loop
      vertex 7.35587 -3 17
      vertex 7.08365 -3.71778 15
      vertex 7.76753 -1.91452 15
    endloop
  endfacet
  facet normal 0.935016 -0.354605 0
    outer loop
      vertex 7.35587 -3 17
      vertex 7.35587 -3 27
      vertex 7.08365 -3.71778 27
    endloop
  endfacet
  facet normal 0.935016 -0.354605 0
    outer loop
      vertex 7.08365 -3.71778 27
      vertex 7.08365 -3.71778 15
      vertex 7.35587 -3 17
    endloop
  endfacet
  facet normal 0.935016 -0.354605 0
    outer loop
      vertex 7.76753 -1.91452 17
      vertex 7.35587 -3 17
      vertex 7.76753 -1.91452 15
    endloop
  endfacet
  facet normal 0.992709 -0.120536 0
    outer loop
      vertex 7.76753 -1.91452 17
      vertex 7.76753 -1.91452 15
      vertex 8 0 15
    endloop
  endfacet
  facet normal 0.992709 -0.120536 0
    outer loop
      vertex 8 0 17
      vertex 7.76753 -1.91452 17
      vertex 8 0 15
    endloop
  endfacet
  facet normal 0.992709 0.120536 0
    outer loop
      vertex 8 0 15
      vertex 7.76753 1.91452 15
      vertex 7.76753 1.91452 17
    endloop
  endfacet
  facet normal 0.992709 0.120536 -0
    outer loop
      vertex 8 0 17
      vertex 8 0 15
      vertex 7.76753 1.91452 17
    endloop
  endfacet
  facet normal 0.935016 0.354605 0
    outer loop
      vertex 7.35587 3 17
      vertex 7.08365 3.71778 15
      vertex 7.08365 3.71778 27
    endloop
  endfacet
  facet normal 0.935016 0.354605 0
    outer loop
      vertex 7.35587 3 17
      vertex 7.76753 1.91452 17
      vertex 7.76753 1.91452 15
    endloop
  endfacet
  facet normal 0.935016 0.354605 3.03926e-16
    outer loop
      vertex 7.76753 1.91452 15
      vertex 7.08365 3.71778 15
      vertex 7.35587 3 17
    endloop
  endfacet
  facet normal 0.935016 0.354605 -0
    outer loop
      vertex 7.35587 3 27
      vertex 7.35587 3 17
      vertex 7.08365 3.71778 27
    endloop
  endfacet
  facet normal 0.822984 0.568065 0
    outer loop
      vertex 7.08365 3.71778 15
      vertex 5.98809 5.30498 15
      vertex 5.98809 5.30498 27
    endloop
  endfacet
  facet normal 0.822984 0.568065 -0
    outer loop
      vertex 7.08365 3.71778 27
      vertex 7.08365 3.71778 15
      vertex 5.98809 5.30498 27
    endloop
  endfacet
  facet normal 0.663123 0.748511 0
    outer loop
      vertex 4.54452 6.58387 15
      vertex 4.54452 6.58387 27
      vertex 5.98809 5.30498 15
    endloop
  endfacet
  facet normal 0.663123 0.748511 0
    outer loop
      vertex 5.98809 5.30498 15
      vertex 4.54452 6.58387 27
      vertex 5.98809 5.30498 27
    endloop
  endfacet
  facet normal 0.464723 0.885456 0
    outer loop
      vertex 2.83684 7.48013 15
      vertex 2.83684 7.48013 27
      vertex 4.54452 6.58387 15
    endloop
  endfacet
  facet normal 0.464723 0.885456 0
    outer loop
      vertex 4.54452 6.58387 15
      vertex 2.83684 7.48013 27
      vertex 4.54452 6.58387 27
    endloop
  endfacet
  facet normal 0.239316 0.970942 0
    outer loop
      vertex 0.964293 7.94167 15
      vertex 0.964293 7.94167 27
      vertex 2.83684 7.48013 15
    endloop
  endfacet
  facet normal 0.239316 0.970942 0
    outer loop
      vertex 2.83684 7.48013 15
      vertex 0.964293 7.94167 27
      vertex 2.83684 7.48013 27
    endloop
  endfacet
  facet normal 0 1 0
    outer loop
      vertex -0.964293 7.94167 15
      vertex -0.964293 7.94167 27
      vertex 0.964293 7.94167 15
    endloop
  endfacet
  facet normal 0 1 0
    outer loop
      vertex 0.964293 7.94167 15
      vertex -0.964293 7.94167 27
      vertex 0.964293 7.94167 27
    endloop
  endfacet
  facet normal -0.239316 0.970942 0
    outer loop
      vertex -2.83684 7.48013 15
      vertex -2.83684 7.48013 27
      vertex -0.964293 7.94167 15
    endloop
  endfacet
  facet normal -0.239316 0.970942 0
    outer loop
      vertex -0.964293 7.94167 15
      vertex -2.83684 7.48013 27
      vertex -0.964293 7.94167 27
    endloop
  endfacet
  facet normal -0.464723 0.885456 0
    outer loop
      vertex -4.54452 6.58387 15
      vertex -4.54452 6.58387 27
      vertex -2.83684 7.48013 15
    endloop
  endfacet
  facet normal -0.464723 0.885456 0
    outer loop
      vertex -2.83684 7.48013 15
      vertex -4.54452 6.58387 27
      vertex -2.83684 7.48013 27
    endloop
  endfacet
  facet normal -0.663123 0.748511 0
    outer loop
      vertex -5.98809 5.30498 15
      vertex -5.98809 5.30498 27
      vertex -4.54452 6.58387 15
    endloop
  endfacet
  facet normal -0.663123 0.748511 0
    outer loop
      vertex -4.54452 6.58387 15
      vertex -5.98809 5.30498 27
      vertex -4.54452 6.58387 27
    endloop
  endfacet
  facet normal -0.822984 0.568065 0
    outer loop
      vertex -7.08365 3.71778 15
      vertex -7.08365 3.71778 27
      vertex -5.98809 5.30498 15
    endloop
  endfacet
  facet normal -0.822984 0.568065 0
    outer loop
      vertex -5.98809 5.30498 15
      vertex -7.08365 3.71778 27
      vertex -5.98809 5.30498 27
    endloop
  endfacet
  facet normal -0.935016 0.354605 0
    outer loop
      vertex -7.76753 1.91452 15
      vertex -7.76753 1.91452 27
      vertex -7.08365 3.71778 15
    endloop
  endfacet
  facet normal -0.935016 0.354605 0
    outer loop
      vertex -7.08365 3.71778 15
      vertex -7.76753 1.91452 27
      vertex -7.08365 3.71778 27
    endloop
  endfacet
  facet normal -0.992709 0.120536 0
    outer loop
      vertex -8 0 15
      vertex -8 0 27
      vertex -7.76753 1.91452 15
    endloop
  endfacet
  facet normal -0.992709 0.120536 0
    outer loop
      vertex -7.76753 1.91452 15
      vertex -8 0 27
      vertex -7.76753 1.91452 27
    endloop
  endfacet
  facet normal 0 0 1
    outer loop
      vertex -7.76753 1.91452 27
      vertex -8 0 27
      vertex -7.76753 -1.91452 27
    endloop
  endfacet
  facet normal 0 0 1
    outer loop
      vertex -5.98809 -5.30498 27
      vertex -7.76753 1.91452 27
      vertex -7.08365 -3.71778 27
    endloop
  endfacet
  facet normal 0 0 1
    outer loop
      vertex -7.08365 -3.71778 27
      vertex -7.76753 1.91452 27
      vertex -7.76753 -1.91452 27
    endloop
  endfacet
  facet normal 0 0 1
    outer loop
      vertex -4.54452 -6.58387 27
      vertex -7.76753 1.91452 27
      vertex -5.98809 -5.30498 27
    endloop
  endfacet
  facet normal 0 0 1
    outer loop
      vertex -2.83684 -7.48013 27
      vertex -7.76753 1.91452 27
      vertex -4.54452 -6.58387 27
    endloop
  endfacet
  facet normal 0 0 1
    outer loop
      vertex -0.964293 -7.94167 27
      vertex -7.76753 1.91452 27
      vertex -2.83684 -7.48013 27
    endloop
  endfacet
  facet normal -0 -0 1
    outer loop
      vertex -3.53553 -3.53553 27
      vertex -7.76753 1.91452 27
      vertex -0.964293 -7.94167 27
    endloop
  endfacet
  facet normal 0 0 1
    outer loop
      vertex -4.6194 -1.91342 27
      vertex -5 0 27
      vertex -7.76753 1.91452 27
    endloop
  endfacet
  facet normal 0 0 1
    outer loop
      vertex -5 0 27
      vertex -4.6194 1.91342 27
      vertex -7.76753 1.91452 27
    endloop
  endfacet
  facet normal 0 -0 1
    outer loop
      vertex 3.53553 -3.53553 27
      vertex 1.91342 -4.6194 27
      vertex 5.98809 -5.30498 27
    endloop
  endfacet
  facet normal -0 0 1
    outer loop
      vertex 7.08365 -3.71778 27
      vertex 3.89337 -3 27
      vertex 5.98809 -5.30498 27
    endloop
  endfacet
  facet normal 0 -0 1
    outer loop
      vertex 3.89337 -3 27
      vertex 3.53553 -3.53553 27
      vertex 5.98809 -5.30498 27
    endloop
  endfacet
  facet normal -0 0 1
    outer loop
      vertex 5.98809 -5.30498 27
      vertex 1.91342 -4.6194 27
      vertex 4.54452 -6.58387 27
    endloop
  endfacet
  facet normal -0 0 1
    outer loop
      vertex 2.83684 -7.48013 27
      vertex 0 -5 27
      vertex 0.964293 -7.94167 27
    endloop
  endfacet
  facet normal -0 -0 1
    outer loop
      vertex 0 -5 27
      vertex -1.91342 -4.6194 27
      vertex 0.964293 -7.94167 27
    endloop
  endfacet
  facet normal -0 0 1
    outer loop
      vertex 0.964293 -7.94167 27
      vertex -3.53553 -3.53553 27
      vertex -0.964293 -7.94167 27
    endloop
  endfacet
  facet normal -0 -0 1
    outer loop
      vertex -4.6194 -1.91342 27
      vertex -7.76753 1.91452 27
      vertex -3.53553 -3.53553 27
    endloop
  endfacet
  facet normal -0 -0 1
    outer loop
      vertex -1.91342 -4.6194 27
      vertex -3.53553 -3.53553 27
      vertex 0.964293 -7.94167 27
    endloop
  endfacet
  facet normal 0 0 1
    outer loop
      vertex -3.53553 3.53553 27
      vertex -7.76753 1.91452 27
      vertex -4.6194 1.91342 27
    endloop
  endfacet
  facet normal 0 0 1
    outer loop
      vertex -1.91342 4.6194 27
      vertex -7.76753 1.91452 27
      vertex -3.53553 3.53553 27
    endloop
  endfacet
  facet normal 0 0 1
    outer loop
      vertex 2.83684 7.48013 27
      vertex -7.76753 1.91452 27
      vertex -1.91342 4.6194 27
    endloop
  endfacet
  facet normal 0 0 1
    outer loop
      vertex 4.54452 6.58387 27
      vertex -1.91342 4.6194 27
      vertex 0 5 27
    endloop
  endfacet
  facet normal 0 0 1
    outer loop
      vertex 7.08365 3.71778 27
      vertex 0 5 27
      vertex 1.91342 4.6194 27
    endloop
  endfacet
  facet normal 0 0 1
    outer loop
      vertex 7.35587 3 27
      vertex 1.91342 4.6194 27
      vertex 3.53553 3.53553 27
    endloop
  endfacet
  facet normal -0 0 1
    outer loop
      vertex 7.35587 3 27
      vertex 3.53553 3.53553 27
      vertex 3.89337 3 27
    endloop
  endfacet
  facet normal -0 -0 1
    outer loop
      vertex 7.08365 3.71778 27
      vertex 1.91342 4.6194 27
      vertex 7.35587 3 27
    endloop
  endfacet
  facet normal 0 -0 1
    outer loop
      vertex 5.98809 5.30498 27
      vertex 0 5 27
      vertex 7.08365 3.71778 27
    endloop
  endfacet
  facet normal 0 -0 1
    outer loop
      vertex 4.54452 6.58387 27
      vertex 0 5 27
      vertex 5.98809 5.30498 27
    endloop
  endfacet
  facet normal 0 -0 1
    outer loop
      vertex 2.83684 7.48013 27
      vertex -1.91342 4.6194 27
      vertex 4.54452 6.58387 27
    endloop
  endfacet
  facet normal 0 -0 1
    outer loop
      vertex 0.964293 7.94167 27
      vertex -7.76753 1.91452 27
      vertex 2.83684 7.48013 27
    endloop
  endfacet
  facet normal 0 -0 1
    outer loop
      vertex -0.964293 7.94167 27
      vertex -7.76753 1.91452 27
      vertex 0.964293 7.94167 27
    endloop
  endfacet
  facet normal 0 -0 1
    outer loop
      vertex -2.83684 7.48013 27
      vertex -7.76753 1.91452 27
      vertex -0.964293 7.94167 27
    endloop
  endfacet
  facet normal 0 -0 1
    outer loop
      vertex -4.54452 6.58387 27
      vertex -7.76753 1.91452 27
      vertex -2.83684 7.48013 27
    endloop
  endfacet
  facet normal 0 -0 1
    outer loop
      vertex -5.98809 5.30498 27
      vertex -7.76753 1.91452 27
      vertex -4.54452 6.58387 27
    endloop
  endfacet
  facet normal 0 -0 1
    outer loop
      vertex -7.08365 3.71778 27
      vertex -7.76753 1.91452 27
      vertex -5.98809 5.30498 27
    endloop
  endfacet
  facet normal 0 0 1
    outer loop
      vertex 7.35587 -3 27
      vertex 3.89337 -3 27
      vertex 7.08365 -3.71778 27
    endloop
  endfacet
  facet normal 0 0 1
    outer loop
      vertex 1.91342 -4.6194 27
      vertex 2.83684 -7.48013 27
      vertex 4.54452 -6.58387 27
    endloop
  endfacet
  facet normal 0 -0 1
    outer loop
      vertex 1.91342 -4.6194 27
      vertex 0 -5 27
      vertex 2.83684 -7.48013 27
    endloop
  endfacet
  facet normal 0 1 0
    outer loop
      vertex 7.35587 -3 27
      vertex 7.35587 -3 17
      vertex 3.89337 -3 27
    endloop
  endfacet
  facet normal 0 1 -0
    outer loop
      vertex 3.89337 -3 27
      vertex 7.35587 -3 17
      vertex 3.89337 -3 17
    endloop
  endfacet
  facet normal 0 0 1
    outer loop
      vertex -4.6194 -1.91342 17
      vertex -3.53553 -3.53553 17
      vertex -1.91342 -4.6194 17
    endloop
  endfacet
  facet normal -0 0 1
    outer loop
      vertex 1.91342 -4.6194 17
      vertex -4.6194 -1.91342 17
      vertex 0 -5 17
    endloop
  endfacet
  facet normal 0 0 1
    outer loop
      vertex 0 -5 17
      vertex -4.6194 -1.91342 17
      vertex -1.91342 -4.6194 17
    endloop
  endfacet
  facet normal -0 0 1
    outer loop
      vertex 3.53553 -3.53553 17
      vertex -4.6194 -1.91342 17
      vertex 1.91342 -4.6194 17
    endloop
  endfacet
  facet normal -0 0 1
    outer loop
      vertex 3.89337 -3 17
      vertex -4.6194 -1.91342 17
      vertex 3.53553 -3.53553 17
    endloop
  endfacet
  facet normal -0 0 1
    outer loop
      vertex 7.35587 -3 17
      vertex -4.6194 -1.91342 17
      vertex 3.89337 -3 17
    endloop
  endfacet
  facet normal -0 0 1
    outer loop
      vertex 7.76753 -1.91452 17
      vertex -4.6194 -1.91342 17
      vertex 7.35587 -3 17
    endloop
  endfacet
  facet normal 0 0 1
    outer loop
      vertex 8 0 17
      vertex -4.6194 -1.91342 17
      vertex 7.76753 -1.91452 17
    endloop
  endfacet
  facet normal 0 -0 1
    outer loop
      vertex 7.76753 1.91452 17
      vertex -4.6194 -1.91342 17
      vertex 8 0 17
    endloop
  endfacet
  facet normal 0 -0 1
    outer loop
      vertex 7.35587 3 17
      vertex -4.6194 -1.91342 17
      vertex 7.76753 1.91452 17
    endloop
  endfacet
  facet normal 0 -0 1
    outer loop
      vertex 3.89337 3 17
      vertex -4.6194 -1.91342 17
      vertex 7.35587 3 17
    endloop
  endfacet
  facet normal 0 -0 1
    outer loop
      vertex 3.53553 3.53553 17
      vertex -4.6194 -1.91342 17
      vertex 3.89337 3 17
    endloop
  endfacet
  facet normal 0 -0 1
    outer loop
      vertex 1.91342 4.6194 17
      vertex -4.6194 -1.91342 17
      vertex 3.53553 3.53553 17
    endloop
  endfacet
  facet normal 0 -0 1
    outer loop
      vertex 0 5 17
      vertex -4.6194 -1.91342 17
      vertex 1.91342 4.6194 17
    endloop
  endfacet
  facet normal 0 -0 1
    outer loop
      vertex -1.91342 4.6194 17
      vertex -4.6194 -1.91342 17
      vertex 0 5 17
    endloop
  endfacet
  facet normal 0 -0 1
    outer loop
      vertex -3.53553 3.53553 17
      vertex -4.6194 -1.91342 17
      vertex -1.91342 4.6194 17
    endloop
  endfacet
  facet normal 0 -0 1
    outer loop
      vertex -4.6194 1.91342 17
      vertex -4.6194 -1.91342 17
      vertex -3.53553 3.53553 17
    endloop
  endfacet
  facet normal 0 0 1
    outer loop
      vertex -5 0 17
      vertex -4.6194 -1.91342 17
      vertex -4.6194 1.91342 17
    endloop
  endfacet
  facet normal 0 -1 0
    outer loop
      vertex 7.35587 3 17
      vertex 7.35587 3 27
      vertex 3.89337 3 27
    endloop
  endfacet
  facet normal -0 -1 -0
    outer loop
      vertex 3.89337 3 17
      vertex 7.35587 3 17
      vertex 3.89337 3 27
    endloop
  endfacet
  facet normal -0.83147 -0.55557 0
    outer loop
      vertex 3.89337 3 27
      vertex 3.53553 3.53553 27
      vertex 3.89337 3 17
    endloop
  endfacet
  facet normal -0.83147 -0.55557 0
    outer loop
      vertex 3.89337 3 17
      vertex 3.53553 3.53553 27
      vertex 3.53553 3.53553 17
    endloop
  endfacet
  facet normal -0.55557 -0.83147 -0
    outer loop
      vertex 3.53553 3.53553 17
      vertex 3.53553 3.53553 27
      vertex 1.91342 4.6194 27
    endloop
  endfacet
  facet normal -0.55557 -0.83147 -0
    outer loop
      vertex 1.91342 4.6194 17
      vertex 3.53553 3.53553 17
      vertex 1.91342 4.6194 27
    endloop
  endfacet
  facet normal -0.19509 -0.980785 -0
    outer loop
      vertex 1.91342 4.6194 17
      vertex 1.91342 4.6194 27
      vertex 0 5 27
    endloop
  endfacet
  facet normal -0.19509 -0.980785 -0
    outer loop
      vertex 0 5 17
      vertex 1.91342 4.6194 17
      vertex 0 5 27
    endloop
  endfacet
  facet normal 0.19509 -0.980785 0
    outer loop
      vertex 0 5 17
      vertex 0 5 27
      vertex -1.91342 4.6194 27
    endloop
  endfacet
  facet normal 0.19509 -0.980785 0
    outer loop
      vertex -1.91342 4.6194 17
      vertex 0 5 17
      vertex -1.91342 4.6194 27
    endloop
  endfacet
  facet normal 0.55557 -0.83147 0
    outer loop
      vertex -1.91342 4.6194 17
      vertex -1.91342 4.6194 27
      vertex -3.53553 3.53553 27
    endloop
  endfacet
  facet normal 0.55557 -0.83147 0
    outer loop
      vertex -3.53553 3.53553 17
      vertex -1.91342 4.6194 17
      vertex -3.53553 3.53553 27
    endloop
  endfacet
  facet normal 0.83147 -0.55557 0
    outer loop
      vertex -3.53553 3.53553 17
      vertex -3.53553 3.53553 27
      vertex -4.6194 1.91342 27
    endloop
  endfacet
  facet normal 0.83147 -0.55557 0
    outer loop
      vertex -4.6194 1.91342 17
      vertex -3.53553 3.53553 17
      vertex -4.6194 1.91342 27
    endloop
  endfacet
  facet normal 0.980785 -0.19509 0
    outer loop
      vertex -4.6194 1.91342 17
      vertex -4.6194 1.91342 27
      vertex -5 0 27
    endloop
  endfacet
  facet normal 0.980785 -0.19509 0
    outer loop
      vertex -5 0 17
      vertex -4.6194 1.91342 17
      vertex -5 0 27
    endloop
  endfacet
  facet normal 0.980785 0.19509 0
    outer loop
      vertex -5 0 27
      vertex -4.6194 -1.91342 27
      vertex -4.6194 -1.91342 17
    endloop
  endfacet
  facet normal 0.980785 0.19509 0
    outer loop
      vertex -5 0 17
      vertex -5 0 27
      vertex -4.6194 -1.91342 17
    endloop
  endfacet
  facet normal 0.83147 0.55557 0
    outer loop
      vertex -4.6194 -1.91342 27
      vertex -3.53553 -3.53553 27
      vertex -3.53553 -3.53553 17
    endloop
  endfacet
  facet normal 0.83147 0.55557 0
    outer loop
      vertex -4.6194 -1.91342 17
      vertex -4.6194 -1.91342 27
      vertex -3.53553 -3.53553 17
    endloop
  endfacet
  facet normal 0.55557 0.83147 -0
    outer loop
      vertex -1.91342 -4.6194 27
      vertex -1.91342 -4.6194 17
      vertex -3.53553 -3.53553 27
    endloop
  endfacet
  facet normal 0.55557 0.83147 -0
    outer loop
      vertex -3.53553 -3.53553 27
      vertex -1.91342 -4.6194 17
      vertex -3.53553 -3.53553 17
    endloop
  endfacet
  facet normal 0.19509 0.980785 -0
    outer loop
      vertex 0 -5 27
      vertex 0 -5 17
      vertex -1.91342 -4.6194 27
    endloop
  endfacet
  facet normal 0.19509 0.980785 -0
    outer loop
      vertex -1.91342 -4.6194 27
      vertex 0 -5 17
      vertex -1.91342 -4.6194 17
    endloop
  endfacet
  facet normal -0.19509 0.980785 0
    outer loop
      vertex 1.91342 -4.6194 27
      vertex 1.91342 -4.6194 17
      vertex 0 -5 27
    endloop
  endfacet
  facet normal -0.19509 0.980785 0
    outer loop
      vertex 0 -5 27
      vertex 1.91342 -4.6194 17
      vertex 0 -5 17
    endloop
  endfacet
  facet normal -0.55557 0.83147 0
    outer loop
      vertex 3.53553 -3.53553 27
      vertex 3.53553 -3.53553 17
      vertex 1.91342 -4.6194 27
    endloop
  endfacet
  facet normal -0.55557 0.83147 0
    outer loop
      vertex 1.91342 -4.6194 27
      vertex 3.53553 -3.53553 17
      vertex 1.91342 -4.6194 17
    endloop
  endfacet
  facet normal -0.83147 0.55557 0
    outer loop
      vertex 3.89337 -3 27
      vertex 3.89337 -3 17
      vertex 3.53553 -3.53553 27
    endloop
  endfacet
  facet normal -0.83147 0.55557 0
    outer loop
      vertex 3.53553 -3.53553 27
      vertex 3.89337 -3 17
      vertex 3.53553 -3.53553 17
    endloop
  endfacet
endsolid OpenSCAD_Model
